<svg xmlns="http://www.w3.org/2000/svg" width="51" height="29" fill="none"><g fill="#4A6CF7" opacity=".15"><path d="M12.431.001C7.15-.079 2.356 3.333 1.22 7.964c-.65 2.844-.082 5.687 1.625 7.962 1.787 2.438 4.55 3.982 7.637 4.388l2.844 6.987a2.053 2.053 0 0 0 1.869 1.22c.812 0 1.543-.488 1.868-1.22a74.4 74.4 0 0 1 1.625-3.737c1.382-3.088 2.763-6.256 3.82-9.506 1.137-3.413.65-7.07-1.3-9.832-1.95-2.68-5.038-4.143-8.776-4.225Zm7.394 13.244c-1.056 3.088-2.438 6.256-3.738 9.263-.243.65-.568 1.218-.812 1.868l-2.763-6.662-.893-.081c-2.6-.163-5.038-1.463-6.42-3.332a6.606 6.606 0 0 1-1.137-5.606c.813-3.331 4.307-5.769 8.288-5.769h.081c2.763 0 5.038 1.138 6.5 3.088 1.381 1.95 1.706 4.712.894 7.231ZM49.075 4.308C47.125 1.545 44.037 0 40.3 0h-.163c-5.2 0-9.912 3.413-11.05 7.963-.65 2.844-.081 5.688 1.625 8.044 1.788 2.437 4.55 3.981 7.638 4.387l2.843 6.988a2.053 2.053 0 0 0 1.87 1.219c.812 0 1.543-.488 1.868-1.22a74.309 74.309 0 0 1 1.625-3.737c1.381-3.087 2.763-6.256 3.819-9.506 1.137-3.331.65-7.069-1.3-9.831Zm-1.382 8.937c-1.056 3.088-2.437 6.257-3.737 9.263-.244.65-.569 1.219-.813 1.869l-2.762-6.663-.894-.081c-2.6-.163-5.037-1.463-6.419-3.331-1.218-1.625-1.624-3.657-1.137-5.688.812-3.331 4.306-5.769 8.287-5.769h.082c2.762 0 5.037 1.138 6.5 3.088 1.381 2.031 1.706 4.793.894 7.312Z"/></g></svg>